<?xml version="1.0" encoding="UTF-8" standalone="no"?>
<!-- Created with Inkscape (http://www.inkscape.org/) -->

<svg
   width="210mm"
   height="297mm"
   viewBox="0 0 210 297"
   version="1.1"
   id="svg5"
   sodipodi:docname="cover_logo.svg"
   inkscape:version="1.2.2 (b0a8486541, 2022-12-01)"
   xmlns:inkscape="http://www.inkscape.org/namespaces/inkscape"
   xmlns:sodipodi="http://sodipodi.sourceforge.net/DTD/sodipodi-0.dtd"
   xmlns="http://www.w3.org/2000/svg"
   xmlns:svg="http://www.w3.org/2000/svg">
  <sodipodi:namedview
     id="namedview7"
     pagecolor="#ffffff"
     bordercolor="#666666"
     borderopacity="1.0"
     inkscape:showpageshadow="2"
     inkscape:pageopacity="0.0"
     inkscape:pagecheckerboard="0"
     inkscape:deskcolor="#d1d1d1"
     inkscape:document-units="mm"
     showgrid="false"
     inkscape:zoom="2"
     inkscape:cx="201.5"
     inkscape:cy="494.5"
     inkscape:window-width="2490"
     inkscape:window-height="1371"
     inkscape:window-x="70"
     inkscape:window-y="32"
     inkscape:window-maximized="1"
     inkscape:current-layer="layer1" />
  <defs
     id="defs2">
    <marker
       style="overflow:visible"
       id="RoundedArrow-7"
       refX="0"
       refY="0"
       orient="auto-start-reverse"
       inkscape:stockid="RoundedArrow"
       markerWidth="2.9274704"
       markerHeight="2.8299999"
       viewBox="0 0 6.1347524 5.9304951"
       inkscape:isstock="true"
       inkscape:collect="always"
       preserveAspectRatio="xMidYMid">
      <path
         d="m -0.21114562,-4.1055728 6.42229122,3.21114561 a 1,1 90 0 1 0,1.78885438 L -0.21114562,4.1055728 A 1.236068,1.236068 31.717474 0 1 -2,3 v -6 a 1.236068,1.236068 148.28253 0 1 1.78885438,-1.1055728 z"
         style="fill:context-stroke;fill-rule:evenodd;stroke:none"
         id="path1367-4"
         transform="scale(0.7)" />
    </marker>
    <marker
       style="overflow:visible"
       id="RoundedArrow-7-3"
       refX="0"
       refY="0"
       orient="auto-start-reverse"
       inkscape:stockid="RoundedArrow"
       markerWidth="2.9274704"
       markerHeight="2.8299999"
       viewBox="0 0 6.1347524 5.9304951"
       inkscape:isstock="true"
       inkscape:collect="always"
       preserveAspectRatio="xMidYMid">
      <path
         d="m -0.21114562,-4.1055728 6.42229122,3.21114561 a 1,1 90 0 1 0,1.78885438 L -0.21114562,4.1055728 A 1.236068,1.236068 31.717474 0 1 -2,3 v -6 a 1.236068,1.236068 148.28253 0 1 1.78885438,-1.1055728 z"
         style="fill:context-stroke;fill-rule:evenodd;stroke:none"
         id="path1367-4-0"
         transform="scale(0.7)" />
    </marker>
  </defs>
  <g
     inkscape:label="Layer 1"
     inkscape:groupmode="layer"
     id="layer1">
    <path
       style="fill:none;stroke:#000000;stroke-width:2.165;stroke-linecap:butt;stroke-linejoin:miter;stroke-miterlimit:5;stroke-dasharray:none;stroke-opacity:1;marker-end:url(#RoundedArrow-7)"
       d="m 71.523389,140.9648 7.882924,-6.56148"
       id="path245-4"
       sodipodi:nodetypes="cc"
       inkscape:export-filename="cover_logo.pdf"
       inkscape:export-xdpi="96"
       inkscape:export-ydpi="96" />
    <path
       style="fill:none;stroke:#000000;stroke-width:2.165;stroke-linecap:butt;stroke-linejoin:miter;stroke-miterlimit:5;stroke-dasharray:none;stroke-opacity:1;marker-end:url(#RoundedArrow-7-3)"
       d="m 118.42725,158.027 -7.22356,-7.28105"
       id="path245-4-7"
       sodipodi:nodetypes="cc" />
    <path
       style="fill:none;stroke:#000000;stroke-width:0.665;stroke-linecap:round;stroke-miterlimit:5;stroke-dasharray:none"
       d="m 93.017661,146.03824 c 3.035505,1.05035 7.956149,2.14063 8.515129,5.46701 0.19842,1.18077 -1.903397,1.754 -2.222297,2.822 -0.319,1.067 0.6794,2.001 1.828897,2.586 1.1494,0.584 1.9164,1.033 1.8452,2.093 -0.0712,1.06 -0.5662,2.699 -0.0556,3.624 0.5106,0.924 1.9784,0.844 3.1967,0.617 1.2183,-0.227 1.9454,-0.091 2.4737,0.933 0.5282,1.024 1.1647,2.555 2.1482,2.774 0.9835,0.219 2.0776,-0.949 2.9007,-1.805 0.8231,-0.855 1.5278,-0.895 2.5928,-0.312 1.065,0.582 2.4501,1.24 3.2683,0.621 0.8182,-0.619 0.8975,-2.315 1.1162,-3.405 0.2188,-1.09 0.9769,-1.358 2.2281,-1.535 1.2512,-0.177 2.5802,-0.658 2.6935,-1.739 0.1133,-1.081 -0.8945,-2.457 -1.2158,-3.415 -0.3212,-0.958 0.4047,-1.631 1.3185,-2.573 0.9135,-0.943 1.4394,-2.154 0.7268,-3.037 -0.7125,-0.883 -2.307,-1.304 -2.9628,-1.933 -0.6557,-0.629 -0.2731,-1.773 -0.1272,-3.097 0.1459,-1.323 -0.3613,-2.431 -1.5346,-2.562 -1.1733,-0.132 -2.615,0.5 -3.4123,0.238 -0.7972,-0.263 -1.1193,-1.623 -1.8145,-2.71 -0.6951,-1.088 -1.8045,-1.353 -2.8064,-0.601 -1.0019,0.752 -1.7431,2.023 -2.5626,2.111 -0.8194,0.087 -1.9542,-0.937 -3.1237,-1.265 -1.1695,-0.328 -2.0654,0.426 -2.3603,1.711 -0.2949,1.284 -0.2288,2.59 -0.9733,3.036 -0.91233,0.99536 -6.902898,-0.46873 -10.071451,-1.71705 -2.148944,-0.84663 -5.024877,-1.62786 -5.789344,-3.80738 -0.319362,-0.91051 -0.01869,-1.81082 0.895105,-2.75282 0.9135,-0.943 1.4394,-2.154 0.7268,-3.037 -0.7125,-0.883 -2.307,-1.304 -2.9628,-1.933 -0.6557,-0.629 -0.2731,-1.773 -0.1272,-3.097 0.1459,-1.323 -0.3613,-2.431 -1.5346,-2.562 -1.1733,-0.132 -2.615,0.5 -3.4123,0.238 -0.7972,-0.263 -1.1193,-1.623 -1.8145,-2.71 -0.6951,-1.088 -1.8045,-1.353 -2.8064,-0.601 -1.0019,0.752 -1.7431,2.023 -2.5626,2.111 -0.8194,0.087 -1.9542,-0.937 -3.1237,-1.265 -1.1695,-0.328 -2.0654,0.426 -2.3603,1.711 -0.2949,1.284 -0.2288,2.59 -0.9733,3.036 -0.7446,0.445 -2.3523,0.315 -3.3668,0.869 -1.0144,0.554 -1.0177,1.826 -0.4521,3.028 0.5656,1.202 1.1675,2.119 0.6527,2.926 -0.5147,0.806 -1.9034,1.754 -2.2223,2.822 -0.319,1.067 0.6794,2.001 1.8289,2.586 1.1494,0.584 1.9164,1.033 1.8452,2.093 -0.0712,1.06 -0.5662,2.699 -0.0556,3.624 0.5106,0.924 1.9784,0.844 3.1967,0.617 1.2183,-0.227 1.9454,-0.091 2.4737,0.933 0.5282,1.024 1.1647,2.555 2.1482,2.774 0.9835,0.219 2.0776,-0.949 2.9007,-1.805 0.8231,-0.855 1.5278,-0.895 2.5928,-0.312 1.065,0.582 2.4501,1.24 3.2683,0.621 0.8182,-0.619 0.402156,-3.24945 1.638419,-3.97346 2.255917,-1.32116 5.533574,0.16083 7.786442,0.9397 z"
       title="cos(t)*(1+0.1*sin(10*t)) sin(t)*(1+0.1*sin(10*t))"
       id="path8239-8"
       sodipodi:nodetypes="caccscscsccscssccccccccscsccaacccccccscscccscccscscsccsac" />
    <path
       style="fill:none;stroke:#000000;stroke-width:0.665001;stroke-linecap:round;stroke-miterlimit:5;stroke-dasharray:none"
       d="M 80.277 77.7575 C 81.1377 76.8965 81.6331 75.7899 80.9618 74.9833 C 80.2905 74.1766 78.7883 73.7925 78.1706 73.2179 C 77.5528 72.6433 77.9133 71.5984 78.0507 70.3896 C 78.1882 69.1809 77.7103 68.1689 76.605 68.0489 C 75.4997 67.929 74.1414 68.5061 73.3903 68.2665 C 72.6392 68.0268 72.3359 66.7843 71.6809 65.7912 C 71.026 64.7981 69.9809 64.556 69.037 65.2429 C 68.0932 65.9298 67.3949 67.0902 66.6229 67.1704 C 65.8509 67.2506 64.7818 66.3148 63.6801 66.0154 C 62.5783 65.716 61.7342 66.4043 61.4565 67.5777 C 61.1787 68.7511 61.241 69.944 60.5395 70.3509 C 59.838 70.7577 58.3234 70.6386 57.3677 71.1445 C 56.412 71.6505 56.4089 72.8129 56.9418 73.9107 C 57.4747 75.0086 58.0417 75.8462 57.5567 76.5827 C 57.0718 77.3192 55.7635 78.185 55.4631 79.1599 C 55.1626 80.1349 56.1032 80.9881 57.186 81.5219 C 58.2689 82.0557 58.9915 82.4656 58.9244 83.4338 C 58.8574 84.402 58.391 85.8994 58.872 86.7436 C 59.3531 87.5877 60.7359 87.5149 61.8836 87.3073 C 63.0313 87.0997 63.7164 87.224 64.214 88.1594 C 64.7116 89.0948 65.3113 90.4932 66.2378 90.6934 C 67.1643 90.8935 68.1951 89.826 68.9705 89.0449 C 69.7459 88.2639 70.4099 88.2274 71.4132 88.7593 C 72.4165 89.2912 73.7213 89.8919 74.4922 89.3267 C 75.263 88.7616 75.3377 87.2123 75.5438 86.2166 C 75.7499 85.2209 76.464 84.9769 77.6428 84.8152 C 78.8215 84.6535 80.0736 84.214 80.1803 83.2268 C 80.2871 82.2396 79.3376 80.9827 79.035 80.1075 C 78.7323 79.2324 79.4162 78.618 80.277 77.7575"
       title="cos(t)*(1+0.1*sin(10*t)) sin(t)*(1+0.1*sin(10*t))"
       id="path14901" />
    <path
       style="fill:none;stroke:#000000;stroke-width:0.665001;stroke-linecap:round;stroke-miterlimit:5;stroke-dasharray:none"
       d="M 134.821 83.3466 C 136.112 82.3532 136.343 81.0342 134.928 80.2959 C 133.514 79.5576 132.254 79.1995 132.795 77.9217 C 133.335 76.6439 134.149 74.754 132.923 74.3353 C 131.697 73.9166 129.575 74.7182 129.114 73.8752 C 128.653 73.0322 129.085 70.5583 128.154 69.9832 C 127.222 69.408 125.403 71.1057 124.406 71.3267 C 123.41 71.5477 122.892 69.462 121.87 68.568 C 120.848 67.674 119.709 69.2303 118.959 70.4753 C 118.208 71.7203 117.278 71.093 115.869 70.2965 C 114.46 69.5001 113.379 70.2153 113.268 71.841 C 113.157 73.4667 113.008 74.4012 111.504 74.2864 C 110 74.1716 108.22 74.3768 108.475 75.7691 C 108.729 77.1613 110.049 78.6782 109.188 79.3435 C 108.327 80.0088 105.96 80.6058 106.048 81.713 C 106.136 82.8203 108.44 83.8196 108.746 84.6868 C 109.053 85.554 107.115 86.9078 106.885 88.1257 C 106.655 89.3436 108.814 89.6402 110.096 89.9491 C 111.377 90.2579 110.805 91.6435 110.666 93.2011 C 110.526 94.7587 111.901 95.1171 113.435 94.6061 C 114.969 94.0951 115.652 94.3167 116.088 95.8475 C 116.524 97.3782 117.52 98.539 118.729 97.6173 C 119.939 96.6956 120.795 95.2484 121.757 96.0321 C 122.718 96.8158 124.171 98.5777 125.09 97.8285 C 126.008 97.0794 126.045 94.6421 126.867 94.2836 C 127.689 93.9251 129.775 95.2782 130.83 94.838 C 131.884 94.3978 131.137 92.145 131.111 90.9803 C 131.084 89.8156 132.929 89.9941 134.305 89.4705 C 135.681 88.9468 135.059 87.4109 134.071 86.2086 C 133.082 85.0062 133.53 84.3395 134.821 83.3466"
       title="cos(t)*(1+0.1*sin(13*t)) sin(t)*(1+0.1*sin(13*t))"
       id="path17237" />
  </g>
</svg>
